<svg xmlns="http://www.w3.org/2000/svg" viewBox="0 0 200 200" role="img" aria-label="れいちゃん"><title>れいちゃん</title><circle cx="100" cy="108" r="96" fill="#fdf7e3"/><g transform="rotate(0 100 110)"><path d="M150 128 C 175 132, 192 150, 196 168 C 180 160, 166 152, 146 146 Z" fill="#4a3d45"/><path d="M150 134 C 172 140, 186 154, 190 166" fill="none" stroke="#fff" stroke-opacity=".35" stroke-width="2"/><path d="M86 168 v10 M80 180 l6 -4 l6 4 M114 168 v10 M108 180 l6 -4 l6 4" stroke="#6b5a60" stroke-width="2.5" stroke-linecap="round" fill="none"/><ellipse cx="100" cy="112" rx="66" ry="60" fill="#ffffff" stroke="#e8dfe6" stroke-width="2"/><path d="M138 98 C 168 108, 170 140, 146 158 C 138 140, 132 120, 138 98 Z" fill="#e7e0e6"/><path d="M146 110 C 160 122, 160 140, 150 152" fill="none" stroke="#4a3d45" stroke-width="5" stroke-linecap="round"/><path d="M62 98 C 32 108, 30 140, 54 158 C 62 140, 68 120, 62 98 Z" fill="#e7e0e6"/><path d="M54 110 C 40 122, 40 140, 50 152" fill="none" stroke="#4a3d45" stroke-width="5" stroke-linecap="round"/><path d="M62 132 Q 100 150, 138 132 Q 136 142, 132 146 Q 100 162, 68 146 Q 64 142, 62 132 Z" fill="#f7e6a8" opacity=".9"/><circle cx="82" cy="102" r="6" fill="#2b2226"/><circle cx="84" cy="100" r="2" fill="#fff"/><circle cx="118" cy="102" r="6" fill="#2b2226"/><circle cx="120" cy="100" r="2" fill="#fff"/><path d="M96 110 L104 110 L100 116 Z" fill="#2b2226"/><ellipse cx="70" cy="116" rx="9" ry="5" fill="#f6a5b8" opacity=".55"/><ellipse cx="130" cy="116" rx="9" ry="5" fill="#f6a5b8" opacity=".55"/><g transform="translate(56 50)"><path d="M-20 22 L 40 -8" stroke="#8a6a55" stroke-width="3.5" stroke-linecap="round"/><ellipse cx="0.0" cy="3.4" rx="6.1" ry="4.4" transform="rotate(-90 0.0 3.4)" fill="#fbe38a" stroke="#eac65a" stroke-width="1"/><ellipse cx="5.7" cy="6.7" rx="6.1" ry="4.4" transform="rotate(-30 5.7 6.7)" fill="#fbe38a" stroke="#eac65a" stroke-width="1"/><ellipse cx="5.7" cy="13.3" rx="6.1" ry="4.4" transform="rotate(30 5.7 13.3)" fill="#fbe38a" stroke="#eac65a" stroke-width="1"/><ellipse cx="0.0" cy="16.6" rx="6.1" ry="4.4" transform="rotate(90 0.0 16.6)" fill="#fbe38a" stroke="#eac65a" stroke-width="1"/><ellipse cx="-5.7" cy="13.3" rx="6.1" ry="4.4" transform="rotate(150 -5.7 13.3)" fill="#fbe38a" stroke="#eac65a" stroke-width="1"/><ellipse cx="-5.7" cy="6.7" rx="6.1" ry="4.4" transform="rotate(210 -5.7 6.7)" fill="#fbe38a" stroke="#eac65a" stroke-width="1"/><circle cx="0" cy="10" r="3.5" fill="#9b5f6e"/><ellipse cx="24.0" cy="-8.0" rx="5.5" ry="4.0" transform="rotate(-90 24.0 -8.0)" fill="#fbe38a" stroke="#eac65a" stroke-width="1"/><ellipse cx="29.2" cy="-5.0" rx="5.5" ry="4.0" transform="rotate(-30 29.2 -5.0)" fill="#fbe38a" stroke="#eac65a" stroke-width="1"/><ellipse cx="29.2" cy="1.0" rx="5.5" ry="4.0" transform="rotate(30 29.2 1.0)" fill="#fbe38a" stroke="#eac65a" stroke-width="1"/><ellipse cx="24.0" cy="4.0" rx="5.5" ry="4.0" transform="rotate(90 24.0 4.0)" fill="#fbe38a" stroke="#eac65a" stroke-width="1"/><ellipse cx="18.8" cy="1.0" rx="5.5" ry="4.0" transform="rotate(150 18.8 1.0)" fill="#fbe38a" stroke="#eac65a" stroke-width="1"/><ellipse cx="18.8" cy="-5.0" rx="5.5" ry="4.0" transform="rotate(210 18.8 -5.0)" fill="#fbe38a" stroke="#eac65a" stroke-width="1"/><circle cx="24" cy="-2" r="3.2" fill="#9b5f6e"/><ellipse cx="40.0" cy="-16.2" rx="3.9" ry="2.8" transform="rotate(-90 40.0 -16.2)" fill="#fbe38a" stroke="#eac65a" stroke-width="1"/><ellipse cx="43.6" cy="-14.1" rx="3.9" ry="2.8" transform="rotate(-30 43.6 -14.1)" fill="#fbe38a" stroke="#eac65a" stroke-width="1"/><ellipse cx="43.6" cy="-9.9" rx="3.9" ry="2.8" transform="rotate(30 43.6 -9.9)" fill="#fbe38a" stroke="#eac65a" stroke-width="1"/><ellipse cx="40.0" cy="-7.8" rx="3.9" ry="2.8" transform="rotate(90 40.0 -7.8)" fill="#fbe38a" stroke="#eac65a" stroke-width="1"/><ellipse cx="36.4" cy="-9.9" rx="3.9" ry="2.8" transform="rotate(150 36.4 -9.9)" fill="#fbe38a" stroke="#eac65a" stroke-width="1"/><ellipse cx="36.4" cy="-14.1" rx="3.9" ry="2.8" transform="rotate(210 36.4 -14.1)" fill="#fbe38a" stroke="#eac65a" stroke-width="1"/><circle cx="40" cy="-12" r="2.2" fill="#9b5f6e"/></g></g></svg>
